<?xml version="1.0" encoding="UTF-8" standalone="no" ?>
<!DOCTYPE svg PUBLIC "-//W3C//DTD SVG 1.1//EN" "http://www.w3.org/Graphics/SVG/1.1/DTD/svg11.dtd">
<svg xmlns="http://www.w3.org/2000/svg" xmlns:xlink="http://www.w3.org/1999/xlink" version="1.1" width="16" height="16" viewBox="0 0 16 16" xml:space="preserve">
<desc>Created with Fabric.js 4.6.0</desc>
<defs>
</defs>
<g transform="matrix(0.05 0 0 0.05 7.04 12.58)" id="K15yCmFVXFq2wsPtppMDp"  >
<path style="stroke: none; stroke-width: 1; stroke-dasharray: none; stroke-linecap: butt; stroke-dashoffset: 0; stroke-linejoin: miter; stroke-miterlimit: 4; fill: rgb(255,153,0); fill-rule: nonzero; opacity: 1;" vector-effect="non-scaling-stroke"  transform=" translate(-230.84, -148.89)" d="M 374.00642 142.18404 C 339.00694 167.98143000000002 288.27733 181.74527 244.60008 181.74527 C 183.35753 181.74527 128.22352 159.09392 86.51250999999999 121.42031 C 83.23540999999999 118.45779 86.17168 114.42041 90.10422 116.72748 C 135.11853 142.91812 190.77691 158.67445 248.27045 158.67445 C 287.045139 158.67445 329.69995 150.65208 368.92035 134.00439 C 374.84535999999997 131.48756 379.80034 137.88448 374.00642 142.18404" stroke-linecap="round" />
</g>
<g transform="matrix(0.05 0 0 0.05 13.8 12.11)" id="zv01XJwqQBBBM7yhSjjIY"  >
<path style="stroke: none; stroke-width: 1; stroke-dasharray: none; stroke-linecap: butt; stroke-dashoffset: 0; stroke-linejoin: miter; stroke-miterlimit: 4; fill: rgb(255,153,0); fill-rule: nonzero; opacity: 1;" vector-effect="non-scaling-stroke"  transform=" translate(-374.76, -139.25)" d="M 388.55678 125.53635 C 384.0999 119.82108 358.98417 122.83602 347.71093 124.17308 C 344.27651000000003 124.59255 343.75219000000004 121.60383 346.84576000000004 119.45403 C 366.84922000000006 105.37559 399.67272 109.4392 403.50038000000006 114.15823 C 407.32802000000004 118.90349 402.50414000000006 151.80564 383.7066500000001 167.50951 C 380.8228000000001 169.92146 378.0700300000001 168.63685 379.35467000000006 165.43838 C 383.5755700000001 154.89920999999998 393.03986000000003 131.27784 388.55678000000006 125.53635" stroke-linecap="round" />
</g>
<g transform="matrix(0.09 0 0 0.09 7.7 5.93)" id="eHMpjSu9H9VpON0s_YKoU"  >
<path style="stroke: none; stroke-width: 1; stroke-dasharray: none; stroke-linecap: butt; stroke-dashoffset: 0; stroke-linejoin: miter; stroke-miterlimit: 4; fill: rgb(34,31,31); fill-rule: nonzero; opacity: 1;" vector-effect="non-scaling-stroke"  transform=" translate(-165.8, -53.31)" d="M 124.99883 105.45424 L 106.35866 105.45424 C 104.57593 105.32317 103.16021 103.98611 103.02912 102.282 L 103.02912 6.61676 C 103.02912 4.70293 104.62835000000001 3.1823400000000004 106.62083000000001 3.1823400000000004 L 124.00259000000001 3.1823400000000004 C 125.81157000000002 3.2609400000000006 127.25348000000001 4.65048 127.38458000000001 6.38079 L 127.38458000000001 18.88624 L 127.72540000000001 18.88624 C 132.26091 6.8002600000000015 140.78137 1.163640000000001 152.26436 1.163640000000001 C 163.93085000000002 1.163640000000001 171.21913 6.800260000000001 176.4625 18.88624 C 180.9718 6.8002600000000015 191.22258 1.163640000000001 202.20745 1.163640000000001 C 210.02007 1.163640000000001 218.56676 4.388310000000001 223.78391 11.624160000000002 C 229.68269999999998 19.67273 228.47672 31.36544 228.47672 41.616240000000005 L 228.45052 101.99363 C 228.45052 103.90746 226.85129 105.45424 224.85881 105.45424 L 206.24484 105.45424 C 204.38346 105.32317 202.8891 103.82881 202.8891 101.99363 L 202.8891 51.29025 C 202.8891 47.25286 203.25612 37.18559 202.36476000000002 33.35792 C 200.97527000000002 26.93481 196.80679 25.12583 191.40611 25.12583 C 186.89681000000002 25.12583 182.17778 28.14077 180.26395000000002 32.96468 C 178.35012000000003 37.78858 178.53364000000002 45.86335 178.53364000000002 51.29025 L 178.53364000000002 101.99363 C 178.53364000000002 103.90746 176.93441 105.45424 174.94193 105.45424 L 156.32798000000003 105.45424 C 154.44037000000003 105.32317 152.97222000000002 103.82881 152.97222000000002 101.99363 L 152.946 51.29025 C 152.946 40.620000000000005 154.70251 24.9161 141.46302 24.9161 C 128.0662 24.9161 128.59054 40.22673 128.59054 51.29025 L 128.59054 101.99363 C 128.59054 103.90746 126.99131 105.45424 124.99883 105.45424" stroke-linecap="round" />
</g>
</svg>